<svg xmlns="http://www.w3.org/2000/svg" viewBox="0 0 64 64" style="max-width:100%"><path d="M31 2C15.008 2 2 15.012 2 31s13.008 29 29 29 29-13.012 29-29S46.992 2 31 2zm0 2c6.863 0 13.133 2.578 17.902 6.813-1.379.492-2.832 1.296-3.62 2.406-.098.14-.2.3-.31.472-.245.391-.761 1.196-1.027 1.13-1.133-.278-1.68-2.598-1.883-3.47a5.352 5.352 0 00-.19-.671c-1.27-3.063-4.09-4.028-5.294-4.438l-.254-.086a.992.992 0 00-1.152.352c-.262.363-.25.855.027 1.207.149.187.211.355.23.324-.066.04-.355.215-1.113.18C34.207 7.184 33.75 6.383 33 5.96c-.89-.504-2.023-.367-3.031.367-.735.535-1.469 1.098-2.211 1.664-.742.563-1.496 1.137-2.262 1.7-1.3.953-1.789 2.19-1.273 3.23.297.601.836.91 1.195 1.113l4.992 2.867c.422.243.957.145 1.27-.23a5.617 5.617 0 001.261-3.84c.024.023.051.059.086.11.93 1.503 2.618.699 3.426.312.156-.074.375-.18.484-.23.38.316.961 1.585 1.032 1.96.008.098-.078.329-.336.579-.278.265-.606.39-.762.378-.984-.093-1.785.34-2.055 1.082-.222.622.016 1.305.59 1.7.145.101.422.218.774.328-.344.097-.57.199-.727.363-.238.148-.465.277-.68.406-1.078.637-2.011 1.188-3.039 2.442-.898 1.097-1.53 2.308-1.863 3.535-1.066-.574-2.383-.715-3.496-.527-1.047.175-2.797.464-3.305 2.53-.242.993.008 2.024.676 2.755.621.683 1.512.992 2.445.851.098-.015.243-.047.403-.078.004-.004.004 0 .004 0-.075.293-.086.64.074 1.008.351.785 1.121.894 1.535.953l.082.012.012.086-.535-.153c-1.153-.316-2.239-.613-3.34-1.136-.98-.47-2.16-1.758-3.024-2.703l-.277-.301c-1.02-1.106-2.219-3.512-2.23-3.535A.99.99 0 0018 25c-.379 0-.723.215-.895.55l-.21.419c-1.047-1.723-2.668-4.621-3.207-6.824l-.075-.286c-.488-2.015-1.093-4.43-2.855-5.699a27.231 27.231 0 016.605-5.45c.106.099.227.177.371.228 1.918.617 3.965 1.222 6.04 1.222.894 0 1.19-.894 1.398-1.566.805-.418 2.527-1.328 2.527-1.328.375-.2.586-.618.52-1.04a.991.991 0 00-.817-.828h-.004l.133-.14c.012-.012.012-.02.02-.031A27.208 27.208 0 0131 4zm-6.594.816c-.043.18-.039.375.02.559a.954.954 0 00.14.273c-.3.157-.535.282-.632.329-.418.207-.528.562-.657.976-.015.05-.039.117-.058.188-1.145-.067-2.317-.344-3.465-.68a27.041 27.041 0 014.652-1.645zm7.45 2.84a.364.364 0 01.164.043c.207.117.382.582.312 1.356-.05.539.344 1.023.879 1.086 2.078.246 3.414-.125 3.965-1.114.062-.109.11-.222.144-.34.989.489 2.102 1.301 2.696 2.735.027.078.058.215.097.39.313 1.31 1.04 4.38 3.356 4.95 1.66.402 2.66-1.157 3.191-1.996.094-.145.176-.278.258-.391.555-.785 2.047-1.586 3.613-1.965.024.027.059.043.09.07a27.01 27.01 0 015.414 8.43 1.778 1.778 0 00-.25.219 6.83 6.83 0 00-1.754 3.266c-.066.312-.27 1.25.266 2.043.316.472 1.773 1.566 3.203 1.722-.871.988-2.828 3.27-3.574 4.621-.395.844-.418 4.266.21 5.254.485.77 1.255 1.512 1.813 1.996.125.11.27.168.422.203-3.02 8.274-9.976 14.668-18.59 16.903a546.517 546.517 0 008.078-7.867c.84-.833 1.887-1.872 2.434-3.22.133-.331.234-.679.332-1.023.129-.445.25-.867.45-1.187.1-.176.23-.332.359-.488.191-.239.414-.512.593-.836.422-.766.54-1.883-.16-2.645-.426-.469-.988-.617-1.36-.715l-4.495-1.183c-.082-1.414-1.328-2.664-2.696-3.344a13.014 13.014 0 00-8.687-1.004c-.48.11-1.188.434-1.656.664-.211-.09-.422-.176-.633-.258.004-1.777-.5-2.16-.7-2.312a1.977 1.977 0 00-.855-.36c.16-.324.305-.757.168-1.261-.348-1.243-1.867-.922-2.777-.727-.117.024-.215.047-.285.055-.27.039-.496-.031-.668-.223-.215-.23-.293-.586-.207-.922.148-.62.375-.82 1.687-1.039 1.117-.187 2.547.14 2.996 1.106.196.433.676.66 1.137.558a1 1 0 00.77-1.004c-.044-1.449.55-3.004 1.675-4.375.801-.98 1.48-1.379 2.504-1.98.297-.176.61-.36.953-.574.004-.004.008-.004.012-.008.21-.05.586-.125.902-.188.836-.164 1.79-.351 2.41-.574.356-.125 1.215-.504 1.56-1.265.175-.391.183-.82.026-1.22-.199-.5-.625-.84-1.164-.937-.625-.113-1.367.137-1.875.606-.023.004-.047.004-.074.008.172-.114.332-.247.48-.391.641-.613.989-1.383.954-2.113C39.945 14.42 38.929 11 37 11c-.473 0-.926.219-1.406.45-.25.116-.692.327-.918.363-.668-1.012-1.649-1.13-2.348-.903-.86.285-1.457 1.113-1.39 1.922a3.596 3.596 0 01-.356 1.863l-4.172-2.394c-.101-.059-.351-.2-.39-.239.007-.101.207-.425.656-.753.781-.57 1.543-1.153 2.297-1.73.73-.556 1.457-1.11 2.18-1.638.253-.187.511-.289.702-.285zM9.487 14.707c1.254.82 1.746 2.824 2.184 4.621l.074.297c.899 3.664 4.281 8.723 4.426 8.938.195.292.523.449.89.437.356-.023.672-.234.833-.55l.144-.294c.465.785 1.05 1.68 1.617 2.293l.27.297c1.031 1.125 2.308 2.524 3.648 3.16 1.254.594 2.477.93 3.66 1.258.586.16 1.157.32 1.72.504l1.648.648c.058.032.148.075.21.11-.054.183-.265.511-.382.699l-.133.215c-1.05 1.71-.95 4.027.246 5.64.469.633 1.05 1.118 1.617 1.59.735.61 1.367 1.137 1.574 1.825.13.445.086.976.016 1.625a111.411 111.411 0 01-1.473 9.445c-.023.12-.058.297-.058.504-.403.02-.809.031-1.219.031C16.113 58 4 45.887 4 31a26.85 26.85 0 015.488-16.293zm47.313 8.328c.316 1.016.562 2.063.758 3.13-.664-.134-1.45-.68-1.602-.84 0 0-.055-.114.031-.497a4.87 4.87 0 01.813-1.793zm1.191 7.621c0 .114.008.23.008.344 0 2.523-.355 4.965-1.004 7.281-.52-.476-.93-.93-1.152-1.285-.239-.508-.266-2.863-.133-3.305.406-.738 1.39-1.976 2.281-3.035zm-45.336 4.047a.907.907 0 00-.394.027l-1.934.516a1.002 1.002 0 00-.71 1.223c.12.449.527.746.968.746a.982.982 0 00.258-.04l1.933-.515a1 1 0 00-.12-1.957zm23.235.598c1.574.05 3.144.433 4.543 1.125.921.457 1.773 1.324 1.539 1.93a.994.994 0 00.675 1.328L48 41.094c.11.027.34.09.371.09.012.043-.004.203-.094.363-.097.176-.242.355-.398.55a6.38 6.38 0 00-.508.7c-.344.555-.512 1.152-.664 1.68-.078.277-.16.562-.27.828-.39.968-1.238 1.808-1.984 2.55a556.833 556.833 0 01-8.586 8.352c-.52.492-1 .922-1.527 1.148.586-3.007 1.055-6.07 1.394-9.113.07-.652.172-1.55-.086-2.418-.378-1.27-1.351-2.078-2.21-2.793-.493-.414-.965-.804-1.29-1.246-.71-.953-.77-2.383-.148-3.398l.121-.192c.367-.586.965-1.527.586-2.492.148-.062.281-.11.375-.129a10.92 10.92 0 012.809-.273zm-21.547 4.101a.954.954 0 00-.375.13l-1.735 1a.994.994 0 00-.367 1.363c.188.324.52.5.867.5.168 0 .344-.043.5-.133l1.735-1a1 1 0 00-.625-1.86zm3.219 4.035a.975.975 0 00-.704.293l-1.418 1.41a1.012 1.012 0 000 1.419 1.015 1.015 0 001.418 0l1.41-1.418a.995.995 0 000-1.41.978.978 0 00-.706-.294zm4.167 3.106a1.001 1.001 0 00-.992.488l-1 1.735a.993.993 0 00.367 1.363.995.995 0 001.363-.363l1-1.735a.997.997 0 00-.738-1.488zm4.438 1.945a1.003 1.003 0 00-.828.735l-.516 1.933a.995.995 0 00.961 1.258 1 1 0 00.969-.742l.516-1.93a.996.996 0 00-.707-1.226 1.044 1.044 0 00-.395-.028z" fill="currentColor"/></svg>