<svg xmlns="http://www.w3.org/2000/svg" viewBox="0 0 64 64" style="max-width:100%"><path d="M31 .914a2.964 2.964 0 00-1.89.664L24.53 5.285a.985.985 0 01-.785.211l-5.824-.926a3.019 3.019 0 00-3.27 1.89l-2.113 5.505a.99.99 0 01-.574.574L6.46 14.652a3.019 3.019 0 00-1.89 3.27l.925 5.824c.043.277-.031.563-.21.785L1.577 29.11a3.014 3.014 0 000 3.778l3.707 4.582c.18.218.258.504.211.785l-.926 5.824a3.019 3.019 0 001.89 3.27l5.505 2.109c.265.105.473.313.574.578l2.113 5.5a3.013 3.013 0 003.27 1.89l5.824-.921c.277-.043.563.031.785.21l4.578 3.708c.551.445 1.22.668 1.891.668.668 0 1.34-.223 1.887-.668l4.582-3.707c.218-.18.508-.258.785-.215l5.824.926a3.017 3.017 0 003.27-1.89l2.109-5.505a1.02 1.02 0 01.578-.574l5.5-2.11a3.014 3.014 0 001.89-3.269l-.921-5.824a1.004 1.004 0 01.21-.785l3.708-4.578a3.02 3.02 0 000-3.782l-3.707-4.578a.985.985 0 01-.211-.785l.922-5.824a3.014 3.014 0 00-1.89-3.27l-5.5-2.113a.99.99 0 01-.575-.574L47.348 6.46a3.023 3.023 0 00-3.27-1.89l-5.824.925a1.004 1.004 0 01-.785-.21L32.89 1.577A2.994 2.994 0 0031 .914zm0 1.996a.99.99 0 01.629.223l4.582 3.71c.66.532 1.52.766 2.355.634l5.825-.926c.46-.074.922.191 1.09.629l2.113 5.504c.3.793.93 1.418 1.722 1.722l5.504 2.114c.438.168.703.625.63 1.09l-.923 5.824a3.013 3.013 0 00.63 2.355l3.71 4.582a1 1 0 010 1.258l-3.71 4.582a3.013 3.013 0 00-.63 2.355l.922 5.825c.074.464-.191.922-.629 1.09l-5.504 2.113c-.793.3-1.418.93-1.722 1.722L45.48 54.82a1.003 1.003 0 01-1.09.63l-5.824-.923a3.013 3.013 0 00-2.355.63l-4.582 3.71a1 1 0 01-1.258 0l-4.582-3.71a3.01 3.01 0 00-1.89-.669c-.157 0-.313.012-.465.04l-5.825.921a1.006 1.006 0 01-1.09-.629L14.673 50h.262c1.55 0 2.921-.727 3.836-1.836.105.082.226.145.359.18.742.203 1.91.3 2.824.3.215 0 .418-.003.598-.015l16.465-1.031a3.287 3.287 0 002.28-5.43 3.546 3.546 0 001.438-2.844v-.457c0-.816-.28-1.57-.75-2.168A3.737 3.737 0 0044 33.375c0-1.137-.512-2.16-1.313-2.844A3.748 3.748 0 0044 27.676v-.207C44 25.519 42.414 24 40.469 24h-12.02l1.676-6.77a4.778 4.778 0 00-.875-4.117 4.78 4.78 0 00-3.781-1.847h-.203c-.391 0-.75.23-.91.59L18.27 25.237c-.887-.8-2.047-1.238-3.336-1.238H7.5c0-.168 0-.402-.027-.566l-.922-5.825a1.003 1.003 0 01.629-1.09l5.504-2.113c.793-.3 1.418-.93 1.722-1.722L16.52 7.18a1.01 1.01 0 011.09-.63l5.824.923a3.009 3.009 0 002.355-.63l4.582-3.71A.998.998 0 0131 2.91zm5.035 7.781a.999.999 0 00-.824.73l-.52 1.934a.995.995 0 00.965 1.258c.442 0 .848-.293.969-.738l.516-1.934a.994.994 0 00-.703-1.222.946.946 0 00-.403-.028zm5.09 1.996a.992.992 0 00-.988.493l-1 1.73a1.002 1.002 0 00.363 1.367.999.999 0 001.363-.367l1-1.73a.998.998 0 00-.738-1.492zm-15.23.61c.703.11 1.335.476 1.78 1.047.536.683.72 1.558.509 2.402l-1.797 7.188h-1.121c-.551 0-1 .449-1 1 0 .55.449 1 1 1h15.203c.843 0 1.531.687 1.531 1.535v.207c0 .855-.61 1.578-1.453 1.719l-1.512.25a1 1 0 00.168 1.988h1.059a1.743 1.743 0 01.285 3.46l-1.512.255c-.512.086-.875.55-.832 1.07.047.516.477.914 1 .914.844 0 1.531.688 1.531 1.531v.461c0 .727-.52 1.36-1.234 1.504l-1.129.223a.994.994 0 00-.797 1.078c.051.516.48.902.992.902h.246c.344 0 .668.137.91.375.247.246.38.567.38.91a1.29 1.29 0 01-1.207 1.286l-16.47 1.027c-.738.05-2.042-.031-2.722-.207.133-.453.23-.926.23-1.422V28.934c0-.692-.14-1.352-.394-1.95a.982.982 0 00.305-.37zm19.246 2.562a.975.975 0 00-.703.293l-1.418 1.41a1.004 1.004 0 000 1.418 1.015 1.015 0 001.417 0l1.41-1.418a.988.988 0 000-1.41.978.978 0 00-.706-.293zm3.058 4.149a.972.972 0 00-.379.129l-1.73 1a.994.994 0 00-.367 1.363 1.001 1.001 0 001.367.363l1.73-1a1 1 0 00.367-1.363 1.002 1.002 0 00-.988-.492zm2.258 4.82a.973.973 0 00-.395.031l-1.933.516a1.003 1.003 0 00.258 1.969.976.976 0 00.258-.035l1.933-.52a1.003 1.003 0 00-.121-1.96zM6.773 25.875c.086.027.172.059.266.059h7.899c1.652 0 3 1.343 3 3V45c0 1.652-1.348 3-3 3h-1.376c-.046 0-.09.02-.136.027a2.824 2.824 0 00-.742-.433L7.18 45.48a1.008 1.008 0 01-.63-1.09l.927-5.824a3.02 3.02 0 00-.633-2.359l-3.711-4.578a1 1 0 010-1.258zM49 30c-.55 0-1 .45-1 1s.45 1 1 1h2c.55 0 1-.45 1-1s-.45-1-1-1z" fill="currentColor"/></svg>