<svg xmlns="http://www.w3.org/2000/svg" viewBox="0 0 64 64" style="max-width:100%"><path d="M26 4c-2.2 0-5.352.691-7.313 2.008-3.718.133-6.265 2.754-6.687 6.894-.25 2.559-.02 4.387.14 5.598.051.422.11.898.09 1.04l-.09.57c-.16 0-.308.03-.43.062-.898.238-1.538 1.039-1.788 2.258-.203.98-.133 2.168.176 3.351.543 1.989 1.664 3.489 2.89 3.95a23.043 23.043 0 002.723 5.597l-9.219 5.344A13.024 13.024 0 000 51.922V59c0 1.648 1.352 3 3 3h46c1.648 0 3-1.352 3-3v-3h9c1.652 0 3-1.348 3-3v-3.563c0-3.746-1.879-7.199-5.027-9.234l-5.91-3.805c2.492-.632 5.175-1.597 6.996-2.402a1.988 1.988 0 001.097-1.258 1.982 1.982 0 00-.246-1.66l-1.71-2.625a13.908 13.908 0 01-1.923-4.52l-1.699-7.41c-1.281-5.59-6.121-9.68-11.828-10.039a4.838 4.838 0 00-2.633-.78c-1.297 0-3.406.007-5.39.82C33.34 4.886 30.383 4 27 4zm0 2h1c6.07 0 10.45 3.102 12.25 8.578-.691-.078-1.402.012-1.902.485-.38.367-.739 1.058-.278 2.296.61 1.68.832 2.672.899 4.07.023.36.222.68.543.852.316.157.699.14 1-.062.168-.098.246-.11.27-.121.058.03.238.242.34.73.128.672.077 1.563-.153 2.434-.25.918-.61 1.578-.95 2-.328.418-.64.617-.789.617-.44 0-.832.289-.96.719-.59 1.98-1.508 3.98-2.7 5.73-.37.563-.77 1.102-1.21 1.61C31.34 38.347 28.78 40 26 40c-2.781 0-5.34-1.652-7.36-4.063a15.198 15.198 0 01-1.21-1.609c-1.192-1.75-2.11-3.75-2.7-5.73a1.003 1.003 0 00-.96-.72c-.301 0-1.239-.776-1.739-2.616-.23-.871-.281-1.762-.152-2.434.113-.508.293-.707.34-.73 0 0 .082.011.27.12.3.204.683.22 1 .063.32-.172.519-.492.542-.851.02-.52.078-1.04.168-1.54.078-.43.012-.91-.078-1.64-.14-1.121-.36-2.82-.121-5.152C14.309 9.91 16.191 8 19.02 8c.21 0 .418-.07.601-.2C20.988 6.77 23.731 6 26 6zm15.117 1.703c.606 0 1.196.195 1.7.57.16.118.355.188.558.196 4.934.195 9.152 3.691 10.254 8.5l1.7 7.41a15.775 15.775 0 002.198 5.168l1.72 2.621c-2.294 1.012-5.895 2.227-8.567 2.695l-2.07-1.336c1.062-1.246 1.624-2.543 2.152-3.965.097-.269.316-.535.687-.835.79-.641 1.348-1.829 1.457-3.102.133-1.559-.199-2.707-.98-3.422-.235-.215-.281-.344-.285-.398l-.032-.239c-.109-.953-.222-1.855-.402-2.414a1.012 1.012 0 00-.96-.695h-1.903a26.31 26.31 0 01-4.39-.426.992.992 0 00-1.161.801.994.994 0 00.8 1.164 28.29 28.29 0 004.739.461h1.117c.074.457.133.992.176 1.34l.027.246c.07.598.375 1.133.926 1.64.285.258.406.903.332 1.77-.07.836-.422 1.48-.722 1.723-.415.336-1.004.879-1.301 1.691-.899 2.434-1.774 4.176-5.59 6.164a.995.995 0 00-.426 1.348.995.995 0 001.348.426c1.187-.617 2.133-1.235 2.906-1.852l10.766 6.934A8.958 8.958 0 0162 49.437V53c0 .55-.45 1-1 1h-9v-2.078a13.02 13.02 0 00-6.488-11.25l-9.223-5.344a23.043 23.043 0 002.723-5.598c1.226-.46 2.347-1.96 2.89-3.949.309-1.183.38-2.37.176-3.351-.25-1.22-.89-2.02-1.789-2.258a1.64 1.64 0 00-.43-.063c-.14-1.07-.41-2.07-.922-3.437a.555.555 0 00-.027-.11c.352.028.91.168 1.38.36.339.137.741.086 1.023-.152a1 1 0 00.34-.98c-.7-3.18-2.118-5.806-4.106-7.767 1.305-.32 2.617-.32 3.57-.32zm-20.59 4.422a2 2 0 00-1.843.89l-1.606 2.434a1.002 1.002 0 001.672 1.102l1.602-2.434 1.562.762a21.073 21.073 0 009.2 2.121h2.554a1 1 0 100-2h-2.555c-2.867 0-5.746-.664-8.32-1.922l-1.566-.762a1.968 1.968 0 00-.7-.191zM16.91 36.938C19.332 39.91 22.5 42 26 42s6.668-2.09 9.09-5.063l9.422 5.465A11.028 11.028 0 0150 51.922V59c0 .55-.45 1-1 1H3c-.55 0-1-.45-1-1v-7.078c0-3.91 2.102-7.563 5.492-9.52zM18.062 42a1.003 1.003 0 00-.511 1.895l8 4a1.011 1.011 0 00.898 0l8-4c.492-.247.692-.848.446-1.344a1.003 1.003 0 00-1.344-.446L26 45.883l-7.55-3.778a1.08 1.08 0 00-.387-.105zM54 48a1 1 0 00-1 1v2a1 1 0 102 0v-2a1 1 0 00-1-1zm5 0a1 1 0 00-1 1v2a1 1 0 102 0v-2a1 1 0 00-1-1zM6 54a1 1 0 00-1 1v2a1 1 0 102 0v-2a1 1 0 00-1-1zm5 0a1 1 0 00-1 1v2a1 1 0 102 0v-2a1 1 0 00-1-1zm5 0a1 1 0 00-1 1v2a1 1 0 102 0v-2a1 1 0 00-1-1zm5 0a1 1 0 00-1 1v2a1 1 0 102 0v-2a1 1 0 00-1-1zm5 0a1 1 0 00-1 1v2a1 1 0 102 0v-2a1 1 0 00-1-1zm5 0a1 1 0 00-1 1v2a1 1 0 102 0v-2a1 1 0 00-1-1zm5 0a1 1 0 00-1 1v2a1 1 0 102 0v-2a1 1 0 00-1-1zm5 0a1 1 0 00-1 1v2a1 1 0 102 0v-2a1 1 0 00-1-1zm5 0a1 1 0 00-1 1v2a1 1 0 102 0v-2a1 1 0 00-1-1z" fill="currentColor"/></svg>