<svg xmlns="http://www.w3.org/2000/svg" viewBox="0 0 64 64" style="max-width:100%"><path d="M31.879 2c-.66 0-1.32.219-1.875.66l-1.399 1.121a28.852 28.852 0 01-16.183 6.29l-3.621.242a3 3 0 00-2.793 3.175l.687 11.559C7.48 35.934 12.45 45.87 20.687 53.03l9.223 8.028a3.012 3.012 0 001.969.726c.707 0 1.41-.242 1.969-.726l9.23-8.028c8.234-7.16 13.203-17.101 13.988-28l.688-11.539a3.007 3.007 0 00-2.797-3.18l-3.617-.242a28.853 28.853 0 01-16.188-6.289l-1.398-1.12A2.994 2.994 0 0031.879 2zm0 2c.223 0 .441.074.625.223l1.398 1.12a30.857 30.857 0 0017.305 6.723l3.621.243a1 1 0 01.93 1.062l-.688 11.527c-.71 9.852-5.027 18.883-12.191 25.606v-.066a1 1 0 10-2 0v1.855l-8.344 7.254a1.007 1.007 0 01-1.312 0l-8.344-7.254v-1.855a1 1 0 10-2 0v.066c-7.16-6.723-11.48-15.75-12.192-25.594L8 13.367a1.005 1.005 0 01.934-1.058l3.617-.243a30.858 30.858 0 0017.308-6.722l1.395-1.121c.187-.149.406-.223.625-.223zm0 2.867c-.399 0-.805.117-1.145.36l-2.57 1.796a29.052 29.052 0 01-14.7 5.18l-.652.043a1 1 0 00-.933 1.063c.035.527.476.933 1 .933.023 0 .043 0 .066-.004l.649-.039a31.047 31.047 0 0015.719-5.539l2.566-1.797 2.57 1.797a30.826 30.826 0 009.078 4.36.995.995 0 001.239-.676 1.001 1.001 0 00-.676-1.242 29.01 29.01 0 01-8.496-4.079l-2.567-1.796a1.988 1.988 0 00-1.148-.36zm16.137 7.09a1.002 1.002 0 00-.293 1.98c.804.118 1.625.208 2.441.262l.59.04h.07c.52 0 .961-.403.992-.93a1.002 1.002 0 00-.925-1.07l-.594-.036a29.498 29.498 0 01-2.281-.246zm-3.137 8.48a.982.982 0 00-.707.297l-14.293 14.29-7.29-7.294a1.004 1.004 0 00-1.417 0 1 1 0 000 1.415l8 8a1 1 0 001.418 0l15-15a1 1 0 00-.711-1.707zm-18 27c-.55 0-1 .45-1 1v2a1 1 0 102 0v-2a1 1 0 00-1-1zm5 0c-.55 0-1 .45-1 1v2a1 1 0 102 0v-2a1 1 0 00-1-1zm5 0c-.55 0-1 .45-1 1v2a1 1 0 102 0v-2a1 1 0 00-1-1z" fill="currentColor"/></svg>